<svg width="211" height="72" viewBox="0 0 211 72" fill="none" xmlns="http://www.w3.org/2000/svg">
<rect x="0.5" y="0.5" width="210" height="71" rx="4.5" stroke="#9747FF" stroke-dasharray="10 5"/>
<path d="M60.4432 27.5455L65.3011 41.7614H65.4972L70.3551 27.5455H73.2017L66.9205 45H63.8778L57.5966 27.5455H60.4432ZM79.8473 45.2642C78.5575 45.2642 77.4467 44.9886 76.5149 44.4375C75.5888 43.8807 74.8729 43.0994 74.3672 42.0938C73.8672 41.0824 73.6172 39.8977 73.6172 38.5398C73.6172 37.1989 73.8672 36.017 74.3672 34.9943C74.8729 33.9716 75.5774 33.1733 76.4808 32.5994C77.3899 32.0256 78.4524 31.7386 79.6683 31.7386C80.407 31.7386 81.1229 31.8608 81.8161 32.1051C82.5092 32.3494 83.1314 32.733 83.6825 33.2557C84.2337 33.7784 84.6683 34.4574 84.9865 35.2926C85.3047 36.1222 85.4638 37.1307 85.4638 38.3182V39.2216H75.0575V37.3125H82.9666C82.9666 36.642 82.8303 36.0483 82.5575 35.5312C82.2848 35.0085 81.9013 34.5966 81.407 34.2955C80.9183 33.9943 80.3445 33.8438 79.6854 33.8438C78.9695 33.8438 78.3445 34.0199 77.8104 34.3722C77.282 34.7187 76.8729 35.1733 76.5831 35.7358C76.299 36.2926 76.157 36.8977 76.157 37.5511V39.0426C76.157 39.9176 76.3104 40.6619 76.6172 41.2756C76.9297 41.8892 77.3643 42.358 77.9212 42.6818C78.478 43 79.1286 43.1591 79.8729 43.1591C80.3558 43.1591 80.7962 43.0909 81.1939 42.9545C81.5916 42.8125 81.9354 42.6023 82.2251 42.3239C82.5149 42.0455 82.7365 41.7017 82.8899 41.2926L85.3018 41.7273C85.1087 42.4375 84.7621 43.0597 84.2621 43.5938C83.7678 44.1222 83.1456 44.5341 82.3956 44.8295C81.6513 45.1193 80.8018 45.2642 79.8473 45.2642ZM90.8395 37.2273V45H88.2912V31.9091H90.7372V34.0398H90.8991C91.2003 33.3466 91.6719 32.7898 92.3139 32.3693C92.9616 31.9489 93.777 31.7386 94.7599 31.7386C95.652 31.7386 96.4332 31.9261 97.1037 32.3011C97.7741 32.6705 98.294 33.2216 98.6634 33.9545C99.0327 34.6875 99.2173 35.5937 99.2173 36.6733V45H96.669V36.9801C96.669 36.0312 96.4219 35.2898 95.9276 34.7557C95.4332 34.2159 94.7543 33.946 93.8906 33.946C93.2997 33.946 92.7741 34.0739 92.3139 34.3295C91.8594 34.5852 91.4986 34.9602 91.2315 35.4545C90.9702 35.9432 90.8395 36.5341 90.8395 37.2273ZM108.746 31.9091V33.9545H101.595V31.9091H108.746ZM103.513 28.7727H106.061V41.1562C106.061 41.6506 106.135 42.0227 106.283 42.2727C106.43 42.517 106.621 42.6847 106.854 42.7756C107.092 42.8608 107.351 42.9034 107.629 42.9034C107.834 42.9034 108.013 42.8892 108.166 42.8608C108.32 42.8324 108.439 42.8097 108.524 42.7926L108.984 44.8977C108.837 44.9545 108.626 45.0114 108.354 45.0682C108.081 45.1307 107.74 45.1648 107.331 45.1705C106.661 45.1818 106.036 45.0625 105.456 44.8125C104.876 44.5625 104.408 44.1761 104.05 43.6534C103.692 43.1307 103.513 42.4744 103.513 41.6847V28.7727ZM111.565 45V31.9091H114.113V45H111.565ZM112.852 29.8892C112.408 29.8892 112.028 29.7415 111.71 29.446C111.397 29.1449 111.241 28.7869 111.241 28.3722C111.241 27.9517 111.397 27.5937 111.71 27.2983C112.028 26.9972 112.408 26.8466 112.852 26.8466C113.295 26.8466 113.673 26.9972 113.985 27.2983C114.303 27.5937 114.462 27.9517 114.462 28.3722C114.462 28.7869 114.303 29.1449 113.985 29.446C113.673 29.7415 113.295 29.8892 112.852 29.8892ZM119.553 31.9091L122.442 37.0057L125.357 31.9091H128.143L124.061 38.4545L128.178 45H125.391L122.442 40.108L119.501 45H116.706L120.78 38.4545L116.757 31.9091H119.553ZM135.886 45.2642C134.597 45.2642 133.486 44.9886 132.554 44.4375C131.628 43.8807 130.912 43.0994 130.406 42.0938C129.906 41.0824 129.656 39.8977 129.656 38.5398C129.656 37.1989 129.906 36.017 130.406 34.9943C130.912 33.9716 131.616 33.1733 132.52 32.5994C133.429 32.0256 134.491 31.7386 135.707 31.7386C136.446 31.7386 137.162 31.8608 137.855 32.1051C138.548 32.3494 139.17 32.733 139.722 33.2557C140.273 33.7784 140.707 34.4574 141.026 35.2926C141.344 36.1222 141.503 37.1307 141.503 38.3182V39.2216H131.097V37.3125H139.006C139.006 36.642 138.869 36.0483 138.597 35.5312C138.324 35.0085 137.94 34.5966 137.446 34.2955C136.957 33.9943 136.384 33.8438 135.724 33.8438C135.009 33.8438 134.384 34.0199 133.849 34.3722C133.321 34.7187 132.912 35.1733 132.622 35.7358C132.338 36.2926 132.196 36.8977 132.196 37.5511V39.0426C132.196 39.9176 132.349 40.6619 132.656 41.2756C132.969 41.8892 133.403 42.358 133.96 42.6818C134.517 43 135.168 43.1591 135.912 43.1591C136.395 43.1591 136.835 43.0909 137.233 42.9545C137.631 42.8125 137.974 42.6023 138.264 42.3239C138.554 42.0455 138.776 41.7017 138.929 41.2926L141.341 41.7273C141.148 42.4375 140.801 43.0597 140.301 43.5938C139.807 44.1222 139.185 44.5341 138.435 44.8295C137.69 45.1193 136.841 45.2642 135.886 45.2642Z" fill="#1C2346"/>
<path fill-rule="evenodd" clip-rule="evenodd" d="M25.2013 37.5302L30 48H25H22V47.4631C22 45.838 22.3301 44.2298 22.9703 42.7361L25.2013 37.5302ZM40.7987 37.5302L36 48H41H44L44 47.4631C44 45.838 43.6699 44.2298 43.0297 42.736L40.7987 37.5302Z" fill="#37437D"/>
<path fill-rule="evenodd" clip-rule="evenodd" d="M30.3762 46.5444C30.8883 45.6233 31.8714 45 33 45C34.1287 45 35.1117 45.6233 35.6238 46.5444L43.0297 29.2639C43.6699 27.7702 44 26.162 44 24.5369V24H36C36 25.6569 34.6569 27 33 27C31.3431 27 30 25.6569 30 24H22V24.5369C22 26.162 22.3301 27.7702 22.9703 29.2639L30.3762 46.5444Z" fill="#F26CF9"/>
<path fill-rule="evenodd" clip-rule="evenodd" d="M169.201 35.5302L174 46H169H166V45.4631C166 43.838 166.33 42.2298 166.97 40.7361L169.201 35.5302ZM184.799 35.5302L180 46H185H188L188 45.4631C188 43.838 187.67 42.2298 187.03 40.736L184.799 35.5302Z" fill="#37437D"/>
<path fill-rule="evenodd" clip-rule="evenodd" d="M174.376 44.5444C174.888 43.6233 175.871 43 177 43C178.129 43 179.112 43.6233 179.624 44.5444L187.03 27.2639C187.67 25.7702 188 24.162 188 22.5369V22H180C180 23.6569 178.657 25 177 25C175.343 25 174 23.6569 174 22H166V22.5369C166 24.162 166.33 25.7702 166.97 27.2639L174.376 44.5444Z" fill="#F26CF9"/>
</svg>
